# xmcd CD database file
#
# Track frame offsets:
#	150
#	15728
#	25712
#	39174
#	50128
#	61156
#	74175
#	85330
#	95083
#	109811
#	122324
#	134782
#	162694
#	177612
#
# Disc length: 2580 seconds
#
# Revision: 0
# Processed by: cddbd v1.5.2PL0 Copyright (c) Steve Scherf et al.
# Submitted via: CDex 1.70beta2
#
DISCID=cd0a120e
DTITLE=Various Artist - Jazz in Mexico 2 - The legendary 1954 sessions
DYEAR=2004
DGENRE=Jazz
TTITLE0=Begin the Beguine - Trio de Mario Patron (Cole Porter)
TTITLE1=Everything happens to me - Trio de Mario Patron (Dennis and Adair)
TTITLE2=Pennies from haeaven - Trio de Mario Patron (Burke and Jonston)
TTITLE3=Jeepers creepers - Trio de Mario Patron (Warren and Mercer)
TTITLE4=Silenciosa - Cuarteto de Cesar Molina (Mario Ruiz Armengol)
TTITLE5=Contigo en la distancia - Cuarteto de Cesar Molina (Cesar Portillo de la Luz)
TTITLE6=Volvere - Cuarteto de Cesar Molina (Maria Grever)
TTITLE7=Vacilando - Cuarteto de Cesar Molina (Luis Alcaraz)
TTITLE8=All the things you are - Cuarteto de Hector Hallal 'El Arabe' (Kern and Hammerstein II)
TTITLE9=I surrender dear - Cuarteto de Hector Hallal 'El Arabe' (Baris and Clifford)
TTITLE10=Don't blame me - Cuarteto de Hector Hallal 'El Arabe' (McHugh and Fields)
TTITLE11=Viernes a las nueve - Orquesta de Estrellas (Hector Hallal)
TTITLE12=Besame mucho - Orquesta de Estrellas (Consuelo Velazquez)
TTITLE13=Prisionero del mar - Orquesta de Estrellas (Luis Alcaraz)
EXTD=YEAR: 2004
EXTT0=
EXTT1=
EXTT2=
EXTT3=
EXTT4=
EXTT5=
EXTT6=
EXTT7=
EXTT8=
EXTT9=
EXTT10=
EXTT11=
EXTT12=
EXTT13=
PLAYORDER=
